<svg version="1" xmlns="http://www.w3.org/2000/svg" width="346.667" height="346.667" viewBox="0 0 260.000000 260.000000"><path d="M55.6 53.1c-8.3 2-9.7 5-10.2 22.3-.5 14-1.4 16.9-6 18.6-1.4.6-4.1 1-6 1-3.2 0-3.4.2-3.4 3.5 0 3 .3 3.5 2.4 3.5 5.2 0 8.7 1.4 10.7 4.1 1.7 2.4 2 4.8 2.3 16.1.5 17.1 1.7 20.1 9.1 22.5 4.9 1.6 14.5 1.7 14.6.1 0-.7.2-2.3.5-3.6.3-2 0-2.2-3.5-2.2-5.1 0-8.7-1.4-10-3.9-.6-1.1-1.2-7.4-1.2-14-.2-13.7-1.7-18.8-6.4-20.9l-2.8-1.3 3.1-1.9c1.7-1 3.6-2.9 4.3-4.2 1.1-2 1.9-12.1 1.9-24.4 0-5.9 2.3-8.2 9-9.2 5.3-.7 5.5-.9 5.5-3.7 0-2.9-.2-3-5-3.2-2.7-.1-6.8.3-8.9.8zM214.2 55.4c-.1 2.8.3 3.6 1.6 3.7 5.7.2 9.8 1 11.1 2.4 1.3 1.2 1.7 4.7 2.1 16 .5 13.4.7 14.6 2.9 16.9 1.3 1.4 3.3 2.8 4.4 3.2 1.7.5 1.6.8-.9 2.3-5.3 3.2-5.7 4.5-6.1 16.4-.7 20.9-.8 21.3-10.2 22.4-4.6.5-4.8.7-4.9 3.9l-.1 3.4h5.2c7.1 0 12.5-1.7 15.3-4.7 2.5-2.7 3.1-6.4 3.7-22.8.2-6.3.9-10.8 1.8-12.2 1.6-2.6 5.8-4.3 10.4-4.3 3.1 0 3.3-.2 3.3-3.5 0-3.4-.1-3.5-3.9-3.5-5.6 0-9.5-2.3-10.8-6.2-.5-1.8-1-8.1-1.1-14 0-5.9-.3-11.5-.6-12.5-2.3-7.2-5.5-9.2-15.8-10l-7.3-.6-.1 3.7zM89.5 54.8c-2.1.3-2.1.8-2.1 37.2v37H97l.2-30.1.3-30 9.9 24.3c5.5 13.4 11.1 26.9 12.4 30l2.5 5.8H135V55.2l-2.7-.3c-1.6-.2-3.8-.3-5.1-.1l-2.3.3.3 29.9c.2 16.5 0 29.6-.3 29.2-.3-.4-2.1-4.3-3.9-8.7-1.7-4.4-3.8-9.4-4.5-11-.7-1.7-4.6-11.2-8.7-21.2l-7.3-18.1-4.5-.4c-2.5-.1-5.4-.2-6.5 0zM149.2 92.2l.3 37.2 4.8.1 4.7.2V98h6.3c10.6 0 12.1 1.3 20.2 17.5l7 14 5.2.1c6 .1 6.2 1.1-1.7-14.6-6.8-13.5-9.5-17.5-13.2-19.3l-3-1.4 2.9-.7c13.1-3.3 16.5-22.9 5.7-33-4.6-4.2-11.2-5.6-26-5.6H149l.2 37.2zm29.7-26.5c3.5 2.7 5.1 6 5.1 11 0 9.3-4 12.4-16.7 12.9l-8.3.3V62.7l8.6.6c6.4.3 9.3 1 11.3 2.4z"/></svg>